Patient4_TMGait_0pt3_02_left_16_EMG.mot
version=1
nRows=26
nColumns=33
inDegrees=no
endheader
time	1LAddLong	2LGlutMax	3LGlutMed	4LIliopsoas	5LSemiMemb	6LBicFemLong	7LRecFem	8LVastMed	9LVastLat	10LGasMed	11LTibAnt	12lTibPost	13LPeroneusLong	14LSol	15LExtDigLong	16LFlexDigLong	17RAddLong	18RGlutMax	19RGlutMed	20RIliopsoas	21RSemiMemb	22RBicFemLong	23RRecFem	24RVastMed	25RVastLat	26RGasMed	27RTibAnt	28RTibPost	29RPeroneusLong	30RSol	31RExtDigLong	32RFlexDigLong
30.89	0.003815	-0.006409	-0.048523	0.042572	0.020294	-0.024567	0.06134	0.000305	0.041046	-0.019989	-0.063629	0.017395	-0.014038	0.04303	0.6897	0.014496	-0.003052	-0.041962	0.65826	-0.066528	0.015411	-0.32715	-0.26276	0.077515	0.011597	-0.007324	0.039978	-0.008087	-0.23422	0.052032	-0.001831	-0.030365
30.891	0.004883	0.021667	-0.020599	0.022583	0.024109	-0.031281	-0.037689	0.010376	0.032654	-0.056458	0.04837	0.013885	0.028076	0.12634	0.098114	0.000153	-0.006866	-0.039673	0.36026	-0.048218	0.059052	-0.22492	-0.34103	0.20477	0.18341	-0.006104	0.067444	-0.003357	0.03006	0.10834	-0.00351	-0.026093
30.892	0.004272	0.021973	-0.027618	0.001831	0.022583	-0.037994	-0.057373	-0.00885	0.036774	-0.044098	-0.072021	0.014954	0.016785	0.15869	-0.097504	0.010986	-0.033112	-0.089111	-0.080719	0.001526	0.091248	-0.15579	-0.27969	0.3981	0.26077	-0.011902	0.10254	-0.007477	-0.098724	0.084229	0.000763	-0.02182
30.893	0.004883	0.036163	-0.02182	0.018768	0.030212	-0.035858	0.003662	-0.000305	0.039673	0.00351	-0.046997	0.019531	-0.060272	0.15945	0.30319	-0.001373	-0.037842	-0.079041	-0.53757	0.016479	0.10895	0.015869	-0.090027	0.42679	0.17349	-0.013428	0.1358	-0.003052	-0.91095	0.12589	-0.002747	-0.033875
30.894	0.010529	0.04425	-0.060272	0.041809	0.019531	-0.028687	0.079193	0.006256	0.028381	0.019073	-0.072784	0.01297	-0.06546	0.18601	-0.044708	-0.010529	-0.014954	-0.039825	-0.73624	-0.000458	-0.022278	0.50171	-0.045471	0.38025	0.12024	-0.012817	0.13702	-0.003052	-0.80536	0.077515	-0.001831	-0.030212
30.895	0.007629	0.053253	-0.04425	0.053864	0.0177	-0.017548	0.080566	0.007935	0.02243	0.016785	0.029755	0.023193	-0.008698	0.10468	-0.76324	-0.005646	0.007019	-0.031891	0.037994	-0.028381	-0.037842	0.56183	-0.037079	0.20752	0.08316	-0.007324	0.051117	-0.000763	-0.024261	-0.019531	-0.003967	-0.018616
30.896	0.008087	0.090332	-0.005646	0.023804	0.019684	-0.013885	0.12528	0.012817	0.011139	0.00473	0.083313	0.007629	0.027313	-0.023651	-0.63446	-0.012512	0.02594	-0.054169	0.10742	-0.02121	-0.031738	0.40222	-0.026245	0.19577	0.061035	-0.006409	-0.034637	-0.00351	0.466	-0.035706	-0.001678	-0.010223
30.897	0.006866	0.070953	-0.003052	-0.005188	0.006866	-0.016022	0.10681	0.015259	-0.000305	0.010376	0.11658	-0.016174	0.039978	-0.037231	-0.51331	-0.007782	0.027313	-0.012665	0.60989	-0.042267	-0.021973	0.24933	-0.089874	0.63797	0.33875	0.002136	0.023346	-0.002441	-0.3569	-0.043488	-0.001831	-0.002899
30.898	-0.006409	0.095978	-0.000305	-0.006409	0.010834	-0.023499	0.14343	0.009918	0.024719	-0.0177	-0.082703	-0.015411	0.042419	0.080719	0.10452	-0.015717	0.071716	-0.099335	0.54184	0.040436	-0.006104	0.11215	0.010681	0.53284	0.46555	-0.000458	0.007935	-0.003357	0.039825	-0.03006	-0.002136	-0.014648
30.899	0.003204	0.10284	-0.008545	-0.005951	0.046844	-0.02594	0.092316	0.00473	0.025635	-0.039673	-0.23911	-0.019379	0.072632	0.13733	0.20111	0.005341	0.094147	-0.15945	0.39215	-0.004425	0.075836	0.080872	0.098572	0.27283	0.42282	0.005188	-0.026855	-0.004272	0.58533	0.018616	0.010681	-0.009155
30.9	-0.002747	0.10391	-0.023193	-0.011597	0.015259	-0.027313	0.057373	0.002289	0.055237	-0.014191	-0.089264	-0.010681	0.022125	-0.030823	-0.002441	-0.00412	0.075378	-0.095215	0.74799	0.009766	0.082397	-0.020752	0.12848	-0.007935	0.2887	0.003204	-0.008698	-0.002289	0.36194	0.014343	-0.002594	-0.009918
30.901	0.006714	0.080566	-0.048523	-0.012665	0.010681	-0.038147	0.10681	0.007477	0.056152	-0.005341	-0.17471	-0.008545	0.014648	-0.1265	-0.17212	-0.005951	0.034637	-0.079956	0.46951	0.090637	-0.055542	-0.11612	0.036469	-0.34897	0.12772	-0.023193	0.013123	-0.005798	-0.066376	0.006866	-0.002289	-0.014038
30.902	0.009766	0.062103	-0.031891	-0.01709	0.016174	-0.047455	0.1828	-0.001831	0.06012	0.003357	-0.091705	-0.001068	-0.001068	-0.17029	-0.11353	-0.009308	0.032959	-0.043182	0.17075	0.08728	-0.20294	0.10544	-0.094452	-0.44601	-0.058441	-0.019379	-0.029449	-0.001221	-0.27435	-0.025177	-0.002289	-0.015564
30.903	0.005188	0.06134	-0.019684	-0.022888	0.021515	-0.066376	0.15976	-0.000916	0.061035	0.035706	-0.057526	-0.003052	-0.038605	-0.15778	0.1297	0.001984	0.055847	-0.054321	-0.1445	0.043793	-0.11871	0.25833	-0.042419	-0.18646	-0.39734	-0.015259	0.007935	-0.000916	0.1416	0.001678	-0.003357	-0.007019
30.904	0.012207	0.071411	-0.034332	-0.001678	0.020905	-0.066071	0.15259	0.002289	0.064545	0.011749	-0.1709	-0.005035	0.003204	-0.057373	0.10666	-0.003357	0.058289	-0.060272	-0.71625	0.003052	-0.084686	0.20279	0.2002	-0.073395	-0.51682	-0.014648	-0.040588	-0.001373	0.53497	0.11368	-0.001678	-0.011902
30.905	0.010376	0.078278	-0.041504	0.001526	0.019226	-0.036316	0.15656	0.053864	0.052795	0.007782	-0.20676	-0.006409	-0.001984	-0.062866	0.082397	-0.011139	0.024414	-0.032043	-0.23972	-0.012817	-0.1062	0.1976	0.14099	-0.11566	-0.56168	-0.015259	-0.046082	-0.00473	0.18707	0.081329	-0.000763	-0.024872
30.906	0.005188	0.084534	-0.038605	-0.008087	0.016937	-0.035248	0.11169	-0.001678	0.04776	0.010071	-0.12985	-0.005798	-0.025177	-0.074158	0.45609	0.00473	0.018005	-0.083771	0.42206	-0.02121	-0.16083	0.20477	0.19562	-0.27283	-0.40344	-0.006256	-0.009766	-0.005188	-0.36209	-0.004883	-0.002747	-0.019379
30.907	0.006866	0.11948	-0.021973	-0.001678	0.021057	-0.020294	0.0914	0.007477	0.039978	-0.00473	-0.039825	0.00061	-0.017548	-0.1268	0.31387	-0.009308	-0.0177	-0.062866	0.43411	-0.003662	-0.052338	0.23132	0.042114	-0.58502	-0.23651	0.000916	0.020294	-0.001984	-0.76752	-0.11292	-0.002289	-0.006256
30.908	0.00824	0.18219	-0.019226	-0.014648	0.020142	-0.037231	0.049438	0.008698	0.041046	-0.030212	-0.009155	-0.006866	0.041656	0.037537	0.30472	0.007935	-0.026855	-0.053864	0.76523	-0.008392	0.032501	0.1178	0.010376	-0.61371	-0.15579	0.000763	0.00473	-0.008087	-0.29907	-0.17487	-0.001831	-0.004272
30.909	-0.010223	0.27023	-0.044556	0.014496	0.019836	-0.027771	0.01358	0.019989	0.02655	-0.018311	0.10834	-0.000458	0.061035	0.067902	0.22842	0.007019	-0.02182	-0.07019	0.42374	-0.018311	0.045776	-0.095367	0.070953	-0.4216	-0.10376	0.003662	0.033722	-0.009003	-0.16602	-0.029297	-0.002441	-0.015564
30.91	-0.00885	0.3122	-0.041962	0.021515	0.024872	-0.041656	-0.0383	0.012512	0.039825	0.004272	0.090485	0.007629	0.020752	0.039215	0.24139	-0.007782	-0.011139	-0.081329	-0.22064	-0.023956	0.04837	-0.11368	0.092468	-0.31906	0.003662	-0.008392	0.053864	-0.012054	0.35294	0.12192	0.000305	-0.020905
30.911	-0.007019	0.31586	-0.041199	0.009003	0.018463	-0.04425	-0.028992	0.013428	0.032501	-0.007477	0.014954	0.010223	0.075684	0.00473	-0.42389	-0.008392	-0.004578	-0.045166	-0.21316	-0.014343	0.063019	-0.16815	-0.070648	-0.27878	0.071106	-0.011749	0.026245	-0.007782	1.0397	0.11597	0.001526	-0.007935
30.912	-0.003815	0.34409	-0.025482	0.007477	0.017548	-0.067749	-0.024261	0.010834	0.032806	-0.009003	-0.05661	0.01358	0.093079	0.031891	-0.40329	-0.005035	-0.032501	0.08728	-0.13443	-0.00412	0.038147	-0.23529	-0.021973	-0.098267	0.2771	-0.010834	-0.00473	0.001984	2.1657	0.10254	0.007172	-0.010071
30.913	0.004272	0.41626	-0.021973	-0.006714	0.022736	-0.043488	-0.049133	0.010986	0.028687	-0.023041	0.12619	0.013885	0.046692	0.052643	-0.094452	-0.003204	-0.072632	0.17685	0.1239	0.009308	-0.025177	-0.24185	-0.086823	0.11231	0.2359	-0.010986	0.097961	0.005035	1.2386	0.018921	-0.006256	-0.003662
30.914	0	0.41657	-0.034637	0.004578	0.024567	-0.049744	-0.096741	0.012054	0.027008	0.018768	0.27817	0.019989	-0.068359	0.045776	0.2887	0.002289	-0.076447	0.15274	0.46097	-0.016937	-0.10971	-0.057373	-0.03891	0.13397	0.075989	0.000153	0.072632	0.004425	0.89081	-0.23377	0.000763	0.000305
30.915	0.010071	0.47592	-0.023651	-0.002899	0.025787	-0.058136	-0.098724	0.01297	0.017395	0.009613	0.14923	0.017242	-0.068207	-0.062103	0.26077	0.014038	-0.027313	0.11078	0.67307	-0.15305	-0.024109	-0.041046	-0.095978	0.11139	0.12726	0.011292	-0.007324	0.00061	-0.92972	-0.22476	-0.006409	0.006714
